<svg xmlns="http://www.w3.org/2000/svg" fill="none" viewBox="0 0 29 28" height="28" width="29">
<path stroke="#551305" fill="#551305" d="M28.5 14C28.5 21.4395 22.2487 27.5 14.5 27.5C6.75133 27.5 0.5 21.4395 0.5 14C0.5 6.56055 6.75133 0.5 14.5 0.5C22.2487 0.5 28.5 6.56055 28.5 14Z"></path>
<path fill="white" d="M21.1773 17.9397C21.1736 17.9482 21.1706 17.9571 21.1685 17.9662C20.7787 18.7563 20.0468 19.6504 19.1174 19.6222C17.1774 19.5622 16.6959 18.3348 16.7206 18.4282C16.7455 18.5506 16.7865 18.6692 16.8423 18.781C16.914 18.9131 16.9979 19.0382 17.0927 19.1548C17.2643 19.3431 17.4552 19.5128 17.6624 19.661C17.971 19.8812 18.3343 20.0118 18.7124 20.0386C19.0906 20.0653 19.4687 19.9872 19.8052 19.8127C20.0896 19.6405 20.3439 19.423 20.5583 19.169C20.7118 18.9972 20.8433 18.8071 20.9498 18.6028C20.7967 19.0132 20.5411 19.3775 20.2073 19.661C19.6782 20.0843 19.0839 20.3277 18.3873 20.1284C18.0157 20.0422 17.6669 19.8774 17.3643 19.6451C17.1081 19.4439 16.9028 19.1854 16.7647 18.8903C16.7259 19.3012 16.9146 19.758 17.1174 20.1037C17.2673 20.3571 17.4791 20.5682 17.7329 20.7174C17.9706 20.8554 18.2335 20.9444 18.5061 20.9793C18.7787 21.0141 19.0555 20.994 19.3202 20.9202C19.5588 20.8391 19.7827 20.72 19.9833 20.5675C20.6694 20.0102 21.0962 19.0032 21.172 18.005C21.177 17.9905 21.1811 17.9758 21.1844 17.9609V17.9485L21.1773 17.9397Z"></path>
<path fill="white" d="M19.1251 18.1778C19.0132 18.2021 18.9109 18.2585 18.8305 18.34C18.7406 18.4247 18.6824 18.4952 18.5995 18.5852C18.5151 18.6784 18.4373 18.7774 18.3667 18.8815L18.2873 18.9996C18.2715 19.0261 18.2362 19.079 18.2168 19.1072C18.3233 19.0287 18.4352 18.958 18.5519 18.8956C18.6651 18.8353 18.783 18.7846 18.9046 18.7439C18.9434 18.7298 18.9822 18.7192 19.0228 18.7086C19.1483 18.6923 19.2646 18.6339 19.3526 18.5429C19.3855 18.5012 19.4034 18.4496 19.4034 18.3965C19.4034 18.3434 19.3855 18.2918 19.3526 18.2501C19.3218 18.2228 19.2857 18.2023 19.2465 18.1899C19.2073 18.1774 19.1659 18.1733 19.1251 18.1778Z"></path>
<path fill="white" d="M18.3428 19.1725C18.4979 19.2585 18.6689 19.312 18.8454 19.3295C19.0219 19.3471 19.2002 19.3285 19.3692 19.2748C19.4907 19.2412 19.5971 19.1672 19.6708 19.0649C19.6121 19.0685 19.5532 19.0685 19.4944 19.0649C19.1072 19.0277 18.7164 19.0642 18.3428 19.1725Z"></path>
<path fill="white" d="M16.4489 16.7848C16.4612 17.5343 16.4013 17.5325 16.8351 18.0387C17.1208 18.372 17.3942 18.7159 17.6675 19.0599C17.7593 19.1727 17.8545 19.2362 17.9533 19.0951C18.3183 18.5555 18.8174 18.1145 19.1243 17.5325C19.2507 17.2772 19.3273 17 19.3501 16.716V16.2557C18.6816 16.9435 18.1578 17.5925 17.9391 18.4496C17.8668 18.0969 17.821 17.7671 17.9391 17.4673L17.9497 17.4549C18.0432 17.3174 18.1437 17.1851 18.2495 17.0581C18.3307 16.9576 18.4153 16.8588 18.5 16.7583C18.7375 16.4929 18.9457 16.2026 19.1208 15.8924C19.247 15.6369 19.3236 15.3598 19.3465 15.0758V14.6155C18.7328 15.2469 18.2407 15.85 17.9903 16.6049C17.9656 16.6525 17.9409 16.7001 17.918 16.7495C17.8245 16.2786 17.7963 15.843 18.1896 15.4761C18.3874 15.277 18.5647 15.0584 18.7187 14.8236C18.9673 14.4815 19.3536 13.9012 19.343 13.4127C18.7293 13.7249 18.0855 14.5026 17.8527 15.2592C17.9709 14.7654 18.2055 14.2875 18.2231 13.7989C18.4771 13.6226 19.6552 12.8148 19.2689 12.4392C18.8827 12.0635 18.3748 13.321 18.2107 13.7143C18.2047 13.7166 18.1993 13.7202 18.1949 13.7249C18.2989 13.3122 18.6428 11.7849 18.0361 11.7672C17.4295 11.7496 18.0185 13.4374 18.1437 13.769V13.7813C17.9321 13.4638 17.8122 13.1076 17.6305 12.776C17.4912 12.5221 17.2443 12.2628 16.9356 12.4233C16.8579 12.4652 16.7953 12.5305 16.7567 12.61C16.7181 12.6894 16.7054 12.7789 16.7205 12.866C16.7822 13.1552 17.1191 13.2945 17.3607 13.4056C17.6157 13.5058 17.8593 13.6329 18.0873 13.7848L17.9973 13.7372C17.8059 13.6512 17.6002 13.6016 17.3907 13.5908C17.2338 13.5754 17.0759 13.6073 16.9374 13.6825C16.7293 13.8272 16.9374 14.0511 17.1314 14.0705C17.2876 14.0777 17.4439 14.0581 17.5935 14.0123C17.7798 13.9669 17.9625 13.908 18.1402 13.836C18.112 14.4303 17.7628 14.9788 17.7663 15.5784C17.5723 15.2257 17.5123 14.8201 17.276 14.4903C17.0397 14.1605 16.7064 13.9612 16.3942 13.642C16.3607 14.4726 16.851 14.9418 17.3536 15.4268C17.8827 15.9382 17.8351 16.5502 17.7628 17.1904C17.5705 16.1322 17.2337 15.9259 16.4524 15.1516C16.4524 15.5361 16.4524 15.8571 16.6288 16.2098C16.8204 16.5364 17.064 16.8295 17.3501 17.0775C17.8792 17.589 17.8316 18.201 17.7593 18.8412C17.567 17.7671 17.2425 17.559 16.4489 16.7848Z"></path>
<path fill="white" d="M18.7768 11.2346L19.006 10.0653C18.9549 10.0565 18.9037 10.0441 18.8526 10.03L18.5228 11.1799C18.5173 11.1973 18.5154 11.2156 18.5174 11.2337C18.5193 11.2518 18.525 11.2693 18.5342 11.285C18.5433 11.3008 18.5556 11.3145 18.5703 11.3252C18.585 11.3359 18.6018 11.3434 18.6196 11.3472C18.6374 11.3511 18.6559 11.3511 18.6737 11.3474C18.6915 11.3437 18.7084 11.3363 18.7232 11.3257C18.738 11.3151 18.7504 11.3015 18.7596 11.2858C18.7688 11.2701 18.7747 11.2527 18.7768 11.2346Z"></path>
<path fill="white" d="M19.3577 11.344V10.9665L19.3083 10.0847C19.2554 10.0847 19.2025 10.0847 19.1496 10.0847L19.1143 11.2752C19.1136 11.3042 19.1225 11.3326 19.1397 11.3559C19.1569 11.3793 19.1814 11.3962 19.2093 11.4041C19.2372 11.412 19.2669 11.4104 19.2938 11.3995C19.3207 11.3886 19.3431 11.369 19.3577 11.344Z"></path>
<path fill="white" d="M18.1236 11.0229L18.6157 9.94536C18.5674 9.92372 18.5203 9.89959 18.4746 9.87305L17.8855 10.9065C17.8779 10.9222 17.8734 10.9392 17.8723 10.9565C17.8712 10.9739 17.8736 10.9913 17.8792 11.0078C17.8849 11.0242 17.8937 11.0394 17.9053 11.0524C17.9168 11.0655 17.9307 11.0761 17.9464 11.0838C17.962 11.0914 17.979 11.0959 17.9964 11.097C18.0137 11.0981 18.0311 11.0957 18.0476 11.0901C18.0641 11.0844 18.0792 11.0756 18.0923 11.0641C18.1053 11.0525 18.116 11.0386 18.1236 11.0229Z"></path>
<path fill="white" d="M17.5244 10.6612L18.2686 9.73174C18.2272 9.69945 18.1877 9.6647 18.1504 9.62769L17.3286 10.4883C17.3057 10.5143 17.294 10.5483 17.2962 10.5829C17.2983 10.6174 17.3141 10.6497 17.3401 10.6726C17.366 10.6956 17.4 10.7072 17.4346 10.7051C17.4691 10.7029 17.5014 10.6871 17.5244 10.6612Z"></path>
<path fill="white" d="M17.0407 10.1673L17.986 9.44418C17.9543 9.40185 17.9243 9.35952 17.8961 9.31543L16.8891 9.95387C16.875 9.96382 16.8631 9.97645 16.854 9.99101C16.8449 10.0056 16.8387 10.0218 16.8358 10.0387C16.833 10.0557 16.8335 10.073 16.8373 10.0898C16.8411 10.1066 16.8482 10.1224 16.8582 10.1364C16.8681 10.1504 16.8808 10.1623 16.8953 10.1715C16.9099 10.1806 16.9261 10.1868 16.9431 10.1896C16.96 10.1925 16.9774 10.192 16.9941 10.1882C17.0109 10.1843 17.0267 10.1772 17.0407 10.1673Z"></path>
<path fill="white" d="M17.7234 8.94873L16.5965 9.32791C16.5797 9.33344 16.5642 9.34233 16.551 9.35402C16.5377 9.36571 16.527 9.37997 16.5194 9.39594C16.5119 9.4119 16.5076 9.42924 16.5069 9.44689C16.5063 9.46455 16.5092 9.48216 16.5155 9.49865C16.5218 9.51515 16.5315 9.53018 16.5438 9.54285C16.5561 9.55552 16.5709 9.56555 16.5872 9.57234C16.6035 9.57913 16.621 9.58254 16.6387 9.58236C16.6563 9.58218 16.6738 9.57842 16.69 9.57129L17.7799 9.09688C17.7585 9.04852 17.7396 8.99907 17.7234 8.94873Z"></path>
<path fill="white" d="M16.4907 8.9082L17.6635 8.71067C17.6543 8.65872 17.6478 8.60633 17.6441 8.55371L16.4589 8.65071C16.4406 8.65094 16.4225 8.65504 16.4058 8.66274C16.3892 8.67043 16.3743 8.68156 16.3623 8.69538C16.3502 8.7092 16.3412 8.72541 16.3358 8.74295C16.3304 8.76049 16.3288 8.77897 16.3311 8.79718C16.3333 8.81539 16.3394 8.83292 16.3488 8.84863C16.3583 8.86434 16.371 8.87787 16.3861 8.88835C16.4011 8.89883 16.4182 8.90601 16.4363 8.90943C16.4543 8.91285 16.4728 8.91243 16.4907 8.9082Z"></path>
<path fill="white" d="M16.4565 8.21717L17.6435 8.30535C17.6435 8.25421 17.6435 8.2013 17.6611 8.14839L16.4865 7.95792C16.4693 7.95564 16.4519 7.95681 16.4352 7.96135C16.4185 7.96589 16.4028 7.97371 16.3892 7.98435C16.3755 7.995 16.3641 8.00826 16.3556 8.02336C16.3471 8.03846 16.3417 8.0551 16.3397 8.0723C16.3377 8.08951 16.3392 8.10694 16.344 8.12358C16.3488 8.14021 16.3569 8.15573 16.3678 8.16921C16.3786 8.1827 16.3921 8.19388 16.4073 8.20211C16.4226 8.21035 16.4393 8.21547 16.4565 8.21717Z"></path>
<path fill="white" d="M16.5908 7.53802L17.7195 7.90838C17.7354 7.859 17.7548 7.80962 17.776 7.76023L16.6825 7.29993C16.6662 7.28925 16.6478 7.28235 16.6285 7.27974C16.6092 7.27713 16.5895 7.27887 16.571 7.28484C16.5524 7.29081 16.5355 7.30085 16.5213 7.31423C16.5072 7.32761 16.4962 7.34399 16.4892 7.36216C16.4822 7.38034 16.4793 7.39985 16.4809 7.41927C16.4824 7.43868 16.4882 7.45751 16.498 7.47438C16.5077 7.49124 16.5211 7.50571 16.5372 7.51672C16.5533 7.52773 16.5716 7.53501 16.5908 7.53802Z"></path>
<path fill="white" d="M17.3769 7.29972L17.8901 7.54663C17.917 7.50109 17.947 7.45748 17.98 7.41612L17.525 7.08456C17.4965 7.06491 17.4613 7.05741 17.4272 7.06369C17.3932 7.06998 17.363 7.08954 17.3433 7.11807C17.3237 7.1466 17.3162 7.18177 17.3225 7.21583C17.3288 7.2499 17.3483 7.28008 17.3769 7.29972Z"></path>
<path fill="white" d="M18.1915 7.18326C18.2144 7.1621 18.2373 7.14094 18.262 7.12154L18.3273 7.07921C18.3157 7.06635 18.3017 7.05591 18.2861 7.04846C18.2705 7.04102 18.2535 7.03672 18.2363 7.03582C18.219 7.03492 18.2017 7.03743 18.1854 7.04321C18.1691 7.04899 18.1541 7.05793 18.1412 7.06951C18.1284 7.08109 18.1179 7.09509 18.1105 7.1107C18.103 7.12632 18.0987 7.14325 18.0978 7.16053C18.0969 7.17781 18.0994 7.19509 18.1052 7.2114C18.111 7.22771 18.1199 7.24272 18.1315 7.25557L18.1439 7.23264C18.1582 7.21479 18.1742 7.19826 18.1915 7.18326Z"></path>
<path fill="white" d="M18.249 9.37914C18.3887 9.53314 18.5603 9.65464 18.752 9.73509C18.9437 9.81553 19.1507 9.85296 19.3584 9.84474V7H19.2878C19.014 7.00393 18.7472 7.08686 18.5194 7.23882C18.2916 7.39079 18.1125 7.60531 18.0037 7.85661C17.8949 8.10791 17.861 8.38528 17.9061 8.65538C17.9512 8.92547 18.0733 9.1768 18.2579 9.37914H18.249Z"></path>
<path fill="white" d="M11.6701 9.5537C11.7195 9.20098 12.0228 8.30681 11.6401 8.28918C10.6878 8.24332 11.5308 10.8288 11.5308 10.8288C11.5308 10.8288 11.5872 10.1674 11.6701 9.5537Z"></path>
<path fill="white" d="M12.9227 7.58535L12.7322 7.66118C12.6932 7.684 12.6566 7.71059 12.6229 7.74055C12.2701 8.06153 12.1484 8.55887 12.0532 9.028C11.9658 9.40526 11.9185 9.79069 11.9121 10.1779C11.9403 10.1285 11.9703 10.0791 12.0003 10.0315C12.0444 9.93098 12.0885 9.83045 12.1308 9.72816C12.3513 9.21847 12.5788 8.6982 12.9668 8.29962C13.0548 8.21977 13.1325 8.1291 13.1978 8.02978C13.2281 7.97882 13.244 7.92063 13.244 7.86135C13.244 7.80208 13.2281 7.74389 13.1978 7.69293C13.1656 7.65222 13.1231 7.6208 13.0748 7.60189C13.0265 7.58299 12.974 7.57728 12.9227 7.58535Z"></path>
<path fill="white" d="M15.2075 7.21883C14.488 6.92077 13.779 7.63152 13.3769 8.12886C13.1206 8.42868 12.8971 8.75505 12.7102 9.10239L12.6855 9.14472L13.1229 8.79199C13.3346 8.61563 13.5462 8.43926 13.7719 8.29465C13.9714 8.15311 14.1892 8.0392 14.4192 7.95603C14.6466 7.86597 14.8832 7.80092 15.1247 7.76203C15.2226 7.76254 15.318 7.73095 15.3963 7.67208C15.4274 7.63502 15.4465 7.58942 15.4513 7.54126C15.456 7.4931 15.446 7.44464 15.4227 7.40225C15.3744 7.31807 15.2983 7.25325 15.2075 7.21883Z"></path>
<path fill="white" d="M16.9985 12.0458C17.1221 12.0461 17.243 12.0098 17.3459 11.9414C17.4488 11.873 17.5291 11.7756 17.5766 11.6616C17.6241 11.5475 17.6367 11.422 17.6128 11.3007C17.589 11.1795 17.5296 11.0681 17.4424 10.9806C17.3552 10.8931 17.2439 10.8335 17.1228 10.8092C17.0016 10.785 16.876 10.7973 16.7618 10.8445C16.6476 10.8917 16.55 10.9717 16.4813 11.0744C16.4126 11.1771 16.376 11.2979 16.376 11.4214C16.376 11.5867 16.4415 11.7453 16.5582 11.8623C16.6749 11.9793 16.8333 12.0453 16.9985 12.0458Z"></path>
<path fill="white" d="M18.8747 12.1815C19.0218 12.1815 19.141 12.0623 19.141 11.9152C19.141 11.7682 19.0218 11.6489 18.8747 11.6489C18.7276 11.6489 18.6084 11.7682 18.6084 11.9152C18.6084 12.0623 18.7276 12.1815 18.8747 12.1815Z"></path>
<path fill="white" d="M12.4591 18.2112C12.3384 18.2015 12.2175 18.2277 12.1118 18.2867C12.006 18.3457 11.9201 18.4348 11.865 18.5426C11.8098 18.6504 11.7879 18.7721 11.802 18.8924C11.8161 19.0127 11.8656 19.1261 11.9441 19.2182C12.0227 19.3104 12.1268 19.3772 12.2434 19.4101C12.3599 19.4431 12.4836 19.4407 12.5988 19.4033C12.714 19.3659 12.8155 19.2952 12.8904 19.2001C12.9654 19.105 13.0105 18.9898 13.0199 18.8691C13.0265 18.789 13.0171 18.7085 12.9924 18.632C12.9677 18.5556 12.9282 18.4848 12.8761 18.4237C12.824 18.3626 12.7603 18.3124 12.6888 18.2759C12.6172 18.2394 12.5392 18.2175 12.4591 18.2112Z"></path>
<path fill="white" d="M11.8555 19.4919C11.6351 19.3225 11.4815 19.0808 11.4217 18.8094C11.2929 18.3067 11.5134 17.6489 11.1271 17.2327C11.003 17.1034 10.8329 17.0282 10.6537 17.0232C10.4745 17.0183 10.3006 17.084 10.1695 17.2062C9.72151 17.6418 10.1025 18.3738 10.4234 18.7653C10.6481 19.0567 10.9272 19.3017 11.2453 19.4866C11.4676 19.6128 11.7117 19.6959 11.9649 19.7318C12.2041 19.7515 12.4429 19.6893 12.6421 19.5554C12.5179 19.6184 12.3787 19.6458 12.2398 19.6346C12.101 19.6234 11.968 19.574 11.8555 19.4919Z"></path>
<path fill="white" d="M9.02526 18.2006C8.80481 18.6133 9.15224 18.9731 9.4891 19.1724C9.84832 19.3888 10.2297 19.5662 10.6266 19.7015C10.8313 19.7691 11.0397 19.8245 11.251 19.8673C11.3585 19.8921 11.4686 19.9046 11.579 19.9043C11.6795 19.9043 11.7836 19.8831 11.7554 19.8655C11.4358 19.8265 11.1319 19.7049 10.8735 19.5128C10.4892 19.219 10.1763 18.8422 9.95822 18.4105C9.91138 18.31 9.85213 18.2158 9.78186 18.1301C9.73024 18.0794 9.66819 18.0406 9.60002 18.0163C9.53185 17.9921 9.45922 17.983 9.38718 17.9897C9.31514 17.9964 9.24544 18.0188 9.18293 18.0552C9.12042 18.0916 9.06661 18.1413 9.02526 18.2006Z"></path>
<path fill="white" d="M12.0097 20.1268C11.5424 20.2185 11.1138 20.0457 10.6711 19.924C10.3025 19.82 9.66058 19.6683 9.45599 20.1198C9.43173 20.1918 9.42548 20.2687 9.43777 20.3437C9.45007 20.4187 9.48055 20.4896 9.52654 20.5501C9.73818 20.8764 10.1544 21.0069 10.53 20.9998C10.8641 20.9862 11.1886 20.884 11.4701 20.7035C11.6905 20.5631 11.8956 20.3999 12.082 20.2168C12.1553 20.1476 12.2247 20.0746 12.2902 19.9981C12.2463 20.0398 12.1948 20.0727 12.1385 20.0951C12.097 20.1107 12.0538 20.1214 12.0097 20.1268Z"></path>
<path fill="white" d="M12.4984 17.7474C12.1457 17.7757 11.793 17.8109 11.6043 18.1495C11.5688 18.2036 11.5444 18.2642 11.5326 18.3278C11.5208 18.3914 11.5218 18.4567 11.5355 18.5199C11.5055 18.4441 11.7648 18.1672 11.8212 18.1301C11.971 18.0295 12.144 17.9687 12.3238 17.9538C12.4835 17.933 12.6456 17.9612 12.7889 18.0346C12.9322 18.1079 13.0498 18.2231 13.1263 18.3647C13.1888 18.4804 13.2301 18.6065 13.248 18.7368C13.5603 18.2058 13.8389 17.6556 14.0822 17.0896C13.8719 17.2563 13.6429 17.3978 13.3996 17.5111C13.1179 17.6489 12.8115 17.7292 12.4984 17.7474Z"></path>
<path fill="white" d="M9.6074 12.0018C9.38953 12.3094 9.28825 12.6845 9.32169 13.06C9.33223 13.3193 9.37428 13.5763 9.44691 13.8254C9.48527 13.9576 9.5306 14.0877 9.58271 14.2152C9.65348 14.3915 9.73354 14.564 9.82256 14.7319C9.976 15.0176 10.0677 15.1358 10.1065 15.2099C10.0877 15.0786 10.0618 14.9485 10.0289 14.8201C10.013 14.6984 9.9954 14.5767 9.98305 14.455C9.92414 14.0583 9.96041 13.6533 10.0889 13.2734C10.1827 13.0684 10.322 12.8874 10.4963 12.7443C10.7167 12.545 10.8843 12.1535 10.6726 11.8942C10.4099 11.5591 9.84549 11.7179 9.6074 12.0018Z"></path>
<path fill="white" d="M10.7863 12.926C10.5641 12.7638 10.3684 13.053 10.2784 13.2153C10.1472 13.471 10.0863 13.7571 10.102 14.0442C10.102 14.2646 10.125 14.4868 10.1408 14.7073C10.1408 14.7814 10.1532 14.8554 10.1655 14.9278C10.1779 15.0001 10.1955 15.1041 10.2202 15.2082C10.2431 15.0547 10.2608 14.9401 10.2749 14.8554C10.289 14.7708 10.3084 14.6667 10.3278 14.5627C10.365 14.3363 10.4408 14.118 10.5518 13.9172L10.5923 13.8484C10.7264 13.6297 10.8833 13.4022 10.8816 13.143C10.8841 13.1018 10.8767 13.0607 10.8602 13.023C10.8436 12.9852 10.8183 12.952 10.7863 12.926Z"></path>
<path fill="white" d="M8.27685 13.7936C7.95763 13.9876 8.3668 14.4462 8.52023 14.6208C8.80278 14.916 9.14989 15.1418 9.53432 15.2804C9.66081 15.3231 9.79434 15.341 9.92761 15.3333C9.47778 15.1362 9.0979 14.808 8.83769 14.3915C8.75807 14.2075 8.66308 14.0305 8.55374 13.8624C8.51743 13.8125 8.46517 13.7764 8.4056 13.7601C8.36009 13.7559 8.31454 13.7678 8.27685 13.7936Z"></path>
<path fill="white" d="M10.6764 14.1496C10.5993 14.1967 10.5418 14.27 10.5141 14.3559C10.4409 14.5237 10.3962 14.7025 10.3818 14.885C10.3818 14.9221 10.3818 14.9591 10.3818 14.9979C10.3818 15.0367 10.3818 15.1231 10.3818 15.1743C10.4101 15.1302 10.4365 15.0914 10.4524 15.0632C10.4683 15.0349 10.5 14.9891 10.5247 14.9468C10.5752 14.8674 10.6299 14.7909 10.6887 14.7175C10.7898 14.6021 10.8515 14.4576 10.8651 14.3048C10.8678 14.2764 10.8636 14.2478 10.8529 14.2214C10.8421 14.1949 10.8251 14.1715 10.8033 14.1531C10.784 14.1425 10.7624 14.1367 10.7403 14.136C10.7182 14.1354 10.6963 14.1401 10.6764 14.1496Z"></path>
<path fill="white" d="M9.14121 11.289C9.01755 11.3388 8.91096 11.4233 8.83434 11.5324C8.80789 11.5712 8.78672 11.6135 8.7638 11.6523C8.68796 11.8287 8.61918 12.0157 8.55745 12.1938C8.47429 12.654 8.5251 13.1284 8.70383 13.5606C8.77614 13.737 8.85198 13.9274 8.93839 14.1056C9.01314 14.2613 9.10168 14.41 9.20294 14.55C9.4375 14.8675 9.76201 15.0579 10.0583 15.3031C9.57175 14.7261 9.26515 14.0191 9.17648 13.2696C9.1532 12.8849 9.20656 12.4995 9.33345 12.1356C9.43221 11.8922 9.75143 11.2661 9.23998 11.2661C9.20609 11.2688 9.1728 11.2765 9.14121 11.289Z"></path>
<path fill="white" d="M10.1465 9.43731C10.4972 9.43494 10.8348 9.57049 11.0865 9.81473C10.9447 9.46509 10.8914 9.08587 10.9313 8.71069C10.6511 8.93195 10.3886 9.17491 10.1465 9.43731Z"></path>
<path fill="white" d="M14.2891 15.6595C14.1957 15.6693 14.107 15.7053 14.0334 15.7635C13.7487 15.9967 13.5192 16.29 13.3614 16.6224C13.1608 16.9706 12.8803 17.2662 12.5431 17.4849C12.4778 17.5289 12.4778 17.5289 12.5431 17.5307C12.6123 17.5351 12.6817 17.5298 12.7494 17.5148C12.9165 17.4778 13.0791 17.4228 13.2344 17.3508C13.5693 17.2117 13.8723 17.0059 14.1251 16.7459C14.2147 16.6486 14.2939 16.5422 14.3614 16.4284C14.4284 16.2521 14.4954 16.0757 14.5607 15.8993C14.5642 15.8646 14.5597 15.8294 14.5473 15.7967C14.535 15.764 14.5152 15.7346 14.4895 15.7108C14.4639 15.687 14.4331 15.6695 14.3995 15.6597C14.3659 15.6499 14.3306 15.648 14.2961 15.6542L14.2891 15.6595Z"></path>
<path fill="white" d="M14.6598 14.5308C14.3071 14.5431 13.9914 14.9346 13.808 15.2221C13.7752 15.2746 13.7451 15.3287 13.718 15.3844C13.6792 15.4867 13.6387 15.5889 13.5981 15.6859C13.5576 15.8077 13.5316 15.9338 13.5205 16.0616C13.6193 15.9346 13.6969 15.8165 13.7956 15.7089C13.922 15.573 14.0743 15.4638 14.2436 15.3879C14.4517 15.2874 14.7392 15.2115 14.8521 15.014C14.9491 14.85 14.9896 14.5308 14.6598 14.5308Z"></path>
<path fill="white" d="M15.2074 13.6807C15.193 13.6575 15.1734 13.6379 15.1501 13.6235C15.1269 13.6091 15.1006 13.6003 15.0733 13.5978C14.9756 13.5848 14.8763 13.5939 14.7825 13.6244C14.6888 13.6549 14.6032 13.7061 14.5319 13.7742C14.2483 14.0386 14.0563 14.3863 13.9834 14.7671C14.055 14.5979 14.1785 14.4559 14.3361 14.3615C14.4698 14.2656 14.6189 14.1935 14.777 14.1481C14.9116 14.1395 15.0406 14.091 15.1474 14.0088C15.1765 13.9704 15.1977 13.9266 15.2098 13.88C15.2219 13.8334 15.2247 13.7848 15.2179 13.7372C15.2175 13.7179 15.2139 13.6988 15.2074 13.6807Z"></path>
<path fill="white" d="M9.5379 10.2114C9.45947 10.3444 9.41806 10.496 9.41797 10.6505C9.41806 10.8556 9.48966 11.0543 9.62044 11.2124C9.75123 11.3704 9.93302 11.4779 10.1345 11.5163C10.336 11.5548 10.5446 11.5218 10.7244 11.423C10.9042 11.3242 11.0439 11.1658 11.1195 10.9752C11.1951 10.7845 11.2019 10.5734 11.1386 10.3782C11.0754 10.1831 10.9461 10.0161 10.773 9.90604C10.5999 9.79596 10.3938 9.74967 10.1903 9.77514C9.98676 9.8006 9.79846 9.89624 9.65782 10.0456C9.61726 10.1002 9.57493 10.1549 9.5379 10.2114Z"></path>
<path fill="white" d="M15.4055 12.7002C15.2819 12.652 15.1447 12.652 15.0211 12.7002C14.899 12.7494 14.788 12.8225 14.6948 12.9154C14.5554 13.0684 14.4491 13.2485 14.3826 13.4445C14.3615 13.5185 14.3403 13.5944 14.3174 13.6667C14.3877 13.5723 14.4655 13.4839 14.5502 13.4021C14.6516 13.3124 14.7723 13.2472 14.9029 13.2117C14.984 13.1905 15.1145 13.1799 15.1957 13.1588C15.3491 13.1182 15.432 13.0935 15.4708 12.9683C15.4831 12.9242 15.5219 12.829 15.4814 12.7619C15.4612 12.7358 15.4352 12.7147 15.4055 12.7002Z"></path>
<path fill="white" d="M15.5683 11.7939C15.2279 11.7745 14.9792 11.9967 14.7923 12.2454C14.7283 12.337 14.6767 12.4366 14.6388 12.5417L14.5859 12.741C14.7958 12.5487 14.9598 12.36 15.2579 12.2789C15.3631 12.2598 15.4656 12.2278 15.563 12.1837C15.6094 12.1594 15.6484 12.1229 15.6758 12.0782C15.7031 12.0335 15.7178 11.9821 15.7182 11.9297C15.7195 11.894 15.7068 11.8592 15.6829 11.8327C15.6505 11.8067 15.6099 11.7929 15.5683 11.7939Z"></path>
<path fill="white" d="M15.7594 10.9646C15.419 10.947 15.1721 11.1692 14.9834 11.4179C14.9333 11.4881 14.8912 11.5639 14.8582 11.6436C14.8406 11.7247 14.8212 11.8076 14.8018 11.8888C14.9757 11.6891 15.1988 11.5383 15.449 11.4514C15.5547 11.4311 15.6577 11.3985 15.7559 11.3544C15.8022 11.3299 15.8411 11.2934 15.8684 11.2487C15.8957 11.204 15.9105 11.1528 15.9111 11.1004C15.9117 11.0645 15.8984 11.0298 15.874 11.0034C15.8412 10.9781 15.8009 10.9645 15.7594 10.9646Z"></path>
<path fill="white" d="M15.952 10.1215C15.6134 10.1021 15.3647 10.3244 15.176 10.5748C15.1151 10.6614 15.0658 10.7557 15.0296 10.8552L14.9873 11.0527C15.1634 10.8502 15.3888 10.6965 15.6416 10.6065C15.7475 10.5877 15.8506 10.5557 15.9485 10.5113C15.9947 10.4867 16.0335 10.4502 16.0608 10.4055C16.0881 10.3609 16.1029 10.3097 16.1037 10.2573C16.1043 10.2214 16.091 10.1867 16.0666 10.1603C16.0338 10.1351 15.9935 10.1214 15.952 10.1215Z"></path>
<path fill="white" d="M16.1236 9.2398C15.8009 9.22216 15.5646 9.4338 15.3847 9.67013C15.287 9.81771 15.216 9.98126 15.1748 10.1534C15.3829 9.977 15.5381 9.78124 15.8291 9.70187C15.9296 9.68393 16.0275 9.65311 16.1201 9.61016C16.1643 9.58697 16.2014 9.55227 16.2274 9.50974C16.2535 9.46721 16.2676 9.41843 16.2683 9.36854C16.2689 9.35167 16.2661 9.33485 16.26 9.31909C16.2539 9.30332 16.2447 9.28895 16.233 9.27684C16.2017 9.25257 16.1632 9.23953 16.1236 9.2398Z"></path>
<path fill="white" d="M15.4131 9.10381C15.2985 9.23432 15.2862 9.25196 15.4431 9.16554C15.6481 9.05373 15.8281 8.9013 15.9722 8.71758C16.0909 8.56585 16.1751 8.39013 16.2191 8.2026C16.2641 7.94642 16.2496 7.68334 16.1768 7.43365C16.1642 7.37636 16.1398 7.32232 16.1052 7.27496C16.0706 7.2276 16.0265 7.18795 15.9757 7.15852C15.8646 7.09327 15.6777 7.09327 15.623 7.21143C15.5683 7.3296 15.6812 7.53771 15.7147 7.66469C15.8163 8.01932 15.7895 8.39844 15.6389 8.73521C15.5849 8.86989 15.5086 8.99451 15.4131 9.10381Z"></path>
<path fill="white" d="M10.9292 15.9644C10.9295 15.8443 10.8942 15.7267 10.8277 15.6267C10.7612 15.5266 10.6664 15.4486 10.5555 15.4025C10.4446 15.3563 10.3224 15.3442 10.2046 15.3675C10.0867 15.3909 9.97847 15.4487 9.89352 15.5337C9.80856 15.6186 9.75075 15.7269 9.72739 15.8447C9.70404 15.9626 9.7162 16.0847 9.76234 16.1956C9.80848 16.3066 9.88651 16.4013 9.98655 16.4678C10.0866 16.5344 10.2041 16.5697 10.3243 16.5693C10.4037 16.5693 10.4824 16.5537 10.5558 16.5233C10.6292 16.4929 10.6958 16.4483 10.752 16.3922C10.8082 16.336 10.8528 16.2693 10.8832 16.1959C10.9136 16.1225 10.9292 16.0438 10.9292 15.9644Z"></path>
<path fill="white" d="M8.75291 18.0385C8.82453 17.9335 8.93159 17.8577 9.05449 17.8251C9.19018 17.7823 9.33198 17.762 9.47424 17.7652C9.5945 17.7735 9.71311 17.7978 9.82697 17.8375C9.80938 17.7932 9.78563 17.7516 9.75642 17.714C9.7292 17.6742 9.69445 17.64 9.65413 17.6135C9.58123 17.564 9.49903 17.5298 9.41251 17.513C9.36243 17.502 9.3118 17.4938 9.26084 17.4883C9.11242 17.472 8.96236 17.4797 8.8164 17.5112C8.66085 17.5511 8.52269 17.6409 8.42311 17.7669C8.32788 17.8904 8.26968 18.1726 8.47955 18.2166C8.61711 18.2466 8.68766 18.139 8.75291 18.0385Z"></path>
<path fill="white" d="M9.80781 19.7349C9.86294 19.7229 9.91716 19.707 9.97006 19.6873C10.0039 19.6791 10.0357 19.6641 10.0635 19.6432C10.0053 19.6432 9.74079 19.585 9.6967 19.5727C9.57865 19.5376 9.46548 19.4878 9.35984 19.4245C9.25568 19.3608 9.16124 19.2824 9.07943 19.1917C9.01241 19.1194 8.98772 19.0154 8.90306 18.9501C8.87171 18.9249 8.83366 18.9094 8.7936 18.9055C8.75355 18.9016 8.71323 18.9095 8.67762 18.9283C8.64201 18.947 8.61266 18.9758 8.59318 19.011C8.57369 19.0462 8.56493 19.0863 8.56797 19.1265C8.57659 19.2188 8.61567 19.3057 8.67908 19.3734C8.85727 19.5565 9.08987 19.6771 9.34221 19.7173C9.49402 19.7587 9.6533 19.7647 9.80781 19.7349Z"></path>
<path fill="white" d="M8.67199 17.1762C8.7876 17.2462 8.91582 17.2929 9.0494 17.3137C9.172 17.3317 9.29616 17.3364 9.41977 17.3278C9.69489 17.3067 10.1252 17.1938 10.224 16.8922C10.1472 16.9297 10.066 16.9576 9.98237 16.9751C9.90159 16.9945 9.81836 17.0017 9.73546 16.9963C9.20637 16.961 8.83071 16.4178 8.85364 15.9081C8.87565 15.7631 8.87565 15.6157 8.85364 15.4707C8.76899 15.1691 8.47975 15.1286 8.24695 15.2944C8.09586 15.4409 8.00897 15.6412 8.00533 15.8517C7.98259 16.1126 8.0329 16.3746 8.15064 16.6086C8.26838 16.8425 8.44889 17.039 8.67199 17.1762Z"></path>
<path fill="white" d="M9.57321 16.2943C9.51646 16.0978 9.49029 15.8938 9.49562 15.6894C9.49771 15.6604 9.49307 15.6313 9.48206 15.6043C9.47104 15.5774 9.45395 15.5534 9.43212 15.5342C9.41176 15.5222 9.38872 15.5155 9.36511 15.5148C9.32193 15.5125 9.27886 15.5209 9.23976 15.5394C9.20067 15.5579 9.16677 15.5858 9.14112 15.6206C9.10323 15.6953 9.08046 15.7768 9.0741 15.8603C9.06775 15.9438 9.07794 16.0278 9.10409 16.1074C9.13747 16.2815 9.20587 16.4471 9.30514 16.5941C9.36746 16.6687 9.44506 16.729 9.53268 16.771C9.62031 16.8129 9.71592 16.8356 9.81307 16.8375C9.92933 16.8493 10.0465 16.8266 10.1499 16.7722C10.065 16.7426 9.98196 16.7079 9.90125 16.6682C9.75561 16.5808 9.64092 16.4501 9.57321 16.2943Z"></path>
</svg>
