<svg xmlns="http://www.w3.org/2000/svg" fill="none" viewBox="0 0 29 28" height="28" width="29">
<path fill="#551305" d="M16.9132 21H23.0868C23.2643 21 23.4352 20.9229 23.5552 20.7881C24.487 19.744 25 18.3614 25 16.8948C25 16.2918 24.9093 15.6968 24.738 15.132C24.7367 15.1281 24.7372 15.1242 24.7357 15.1205C24.7352 15.119 24.734 15.1183 24.7333 15.1168C24.5422 14.4928 24.2513 13.907 23.8705 13.3902V12.1955H24.2222C24.487 12.1955 24.7023 11.957 24.7023 11.6637V10.5317C24.7023 10.2386 24.487 10 24.2222 10H15.7778C15.513 10 15.2977 10.2385 15.2977 10.5317V11.6639C15.2977 11.957 15.513 12.1956 15.7778 12.1956H16.1295V13.3904C15.4012 14.3784 15 15.6198 15 16.895C15 18.3614 15.513 19.7442 16.4447 20.7881C16.5648 20.9229 16.7355 21 16.9132 21ZM15.7778 11.8263C15.697 11.8263 15.631 11.7534 15.631 11.6637V10.5317C15.631 10.442 15.697 10.3691 15.7778 10.3691H24.2222C24.303 10.3691 24.369 10.442 24.369 10.5317V11.6639C24.369 11.7536 24.303 11.8265 24.2222 11.8265H15.7778V11.8263ZM23.5372 12.1955V13.2704H16.4628V12.1955H23.5372ZM16.3748 13.6395H23.6252C23.9462 14.0786 24.1958 14.5718 24.3713 15.0952C23.0608 15.7128 21.8267 15.9105 20.702 15.6803C20.2815 15.5943 19.9242 15.4598 19.5788 15.3295C19.0305 15.1226 18.4635 14.9088 17.6445 14.8856C16.9628 14.8642 16.271 14.9821 15.5843 15.2326C15.7607 14.658 16.026 14.117 16.375 13.6395H16.3748ZM15.4697 15.6689C16.1915 15.3741 16.9183 15.2342 17.6357 15.2545C18.4038 15.2763 18.9225 15.4718 19.4713 15.6788C19.8282 15.8134 20.197 15.9526 20.6415 16.0434C20.9658 16.1096 21.298 16.1429 21.6377 16.1429C22.5365 16.1429 23.4868 15.9079 24.4752 15.4461C24.599 15.9144 24.6668 16.4014 24.6668 16.8952C24.6668 18.2639 24.188 19.5544 23.3182 20.529C23.2603 20.5939 23.176 20.6312 23.087 20.6312H16.9132C16.8242 20.6312 16.7398 20.5939 16.6818 20.529C15.8122 19.5544 15.3333 18.2639 15.3333 16.8952C15.3333 16.4795 15.3815 16.0683 15.4697 15.6689Z"></path>
<path stroke="#551305" d="M28.5 14C28.5 21.4395 22.2487 27.5 14.5 27.5C6.75133 27.5 0.5 21.4395 0.5 14C0.5 6.56055 6.75133 0.5 14.5 0.5C22.2487 0.5 28.5 6.56055 28.5 14Z"></path>
<path fill="#551305" d="M13.5557 11.4665L8.47429 9.78916C8.38068 9.75795 8.31826 9.67213 8.31826 9.57331V8.74635C8.31826 8.33547 7.9828 8 7.57191 8H5.74635C5.33547 8 5 8.33547 5 8.74635V20.2536C5 20.6645 5.33547 21 5.74635 21H13.3217C13.7325 21 14.068 20.6645 14.068 20.2536V12.1738C14.068 11.8514 13.8626 11.5653 13.5557 11.4665ZM5.74635 8.5201H7.57191C7.69674 8.5201 7.79816 8.62152 7.79816 8.74635V9.31066H5.5201V8.74635C5.5175 8.62152 5.61892 8.5201 5.74635 8.5201ZM13.5479 20.2563C13.5479 20.3811 13.4465 20.4825 13.3217 20.4825H5.74635C5.62152 20.4825 5.5201 20.3811 5.5201 20.2563V9.83337H7.84757C7.92559 10.0414 8.09202 10.2104 8.31306 10.2833L13.3945 11.9606C13.4881 11.9918 13.5505 12.0776 13.5505 12.1764V20.2563H13.5479Z"></path>
<path fill="#551305" d="M11.9648 12.5716C11.4577 12.5716 11.0443 12.9851 11.0443 13.4922V18.4462C11.0443 18.9533 11.4577 19.3667 11.9648 19.3667C12.4719 19.3667 12.8854 18.9533 12.8854 18.4462V13.4922C12.8854 12.9851 12.4719 12.5716 11.9648 12.5716ZM12.3653 18.4462C12.3653 18.6672 12.1859 18.8466 11.9648 18.8466C11.7438 18.8466 11.5644 18.6672 11.5644 18.4462V13.4922C11.5644 13.2711 11.7438 13.0917 11.9648 13.0917C12.1859 13.0917 12.3653 13.2711 12.3653 13.4922V18.4462Z"></path>
<path fill="#551305" d="M8.22987 14.6627C8.04003 15.0216 7.09344 16.8471 7.09344 17.4921C7.09344 18.2462 7.70717 18.8599 8.46132 18.8599C9.21547 18.8599 9.82919 18.2462 9.82919 17.4921C9.82919 16.8497 8.8826 15.0216 8.69276 14.6627C8.59915 14.4911 8.31829 14.4911 8.22987 14.6627ZM8.45872 18.3372C7.99062 18.3372 7.61095 17.9576 7.61095 17.4895C7.61095 17.1592 8.06604 16.1398 8.45872 15.3518C8.8514 16.1398 9.30649 17.1592 9.30649 17.4895C9.30649 17.9576 8.92681 18.3372 8.45872 18.3372Z"></path>
</svg>
