<svg xmlns="http://www.w3.org/2000/svg" fill="none" viewBox="0 0 29 28" height="28" width="29">
<path stroke="#551305" d="M28.5 14C28.5 21.4395 22.2487 27.5 14.5 27.5C6.75133 27.5 0.5 21.4395 0.5 14C0.5 6.56055 6.75133 0.5 14.5 0.5C22.2487 0.5 28.5 6.56055 28.5 14Z"></path>
<path fill="#551305" d="M11.4021 11.8299C10.8555 11.8299 10.4108 12.2702 10.4108 12.8114C10.4108 13.3525 10.8555 13.7928 11.4021 13.7928C11.9487 13.7928 12.3934 13.3525 12.3934 12.8114C12.3934 12.2702 11.9487 11.8299 11.4021 11.8299ZM11.4021 13.246C11.16 13.246 10.9631 13.051 10.9631 12.8114C10.9631 12.5718 11.16 12.3768 11.4021 12.3768C11.6442 12.3768 11.8411 12.5718 11.8411 12.8114C11.8411 13.051 11.6441 13.246 11.4021 13.246ZM11.9361 9.49125L8.92382 13.6422C8.83507 13.7643 8.66313 13.7921 8.53979 13.7042C8.41645 13.6163 8.38846 13.4461 8.47721 13.324L11.4895 9.17302C11.5782 9.05091 11.7502 9.02319 11.8735 9.11106C11.9968 9.19895 12.0248 9.36918 11.9361 9.49125ZM9.99999 9.97331C9.99999 9.43216 9.55528 8.99186 9.00867 8.99186C8.46205 8.99186 8.01734 9.43213 8.01734 9.97331C8.01734 10.5145 8.46202 10.9547 9.00867 10.9547C9.55528 10.9547 9.99999 10.5145 9.99999 9.97331ZM8.56965 9.97331C8.56965 9.73365 8.76662 9.53865 9.00867 9.53865C9.25072 9.53865 9.44768 9.73365 9.44768 9.97331C9.44768 10.213 9.25075 10.4079 9.00867 10.4079C8.76658 10.4079 8.56965 10.2129 8.56965 9.97331ZM22.9811 14.2122L22.3112 10.6454C22.2279 10.2024 22.0787 9.70084 21.6028 9.33934C21.1548 8.99914 20.6609 8.96773 20.2261 8.99452L18.7261 7.34362C18.5218 7.11882 18.2524 7 17.947 7H7.04783C6.47005 7 6 7.46535 6 8.03736V14.7473C6 15.3193 6.47008 15.7847 7.04783 15.7847H11.0163L9.10794 18.2474C8.7563 18.7012 8.84315 19.3537 9.30149 19.7019L14.679 23.7861C14.8688 23.9303 15.093 24 15.3156 24C15.6305 24 15.9421 23.8604 16.1482 23.5945L22.7823 15.0333C22.9682 14.7934 23.037 14.5095 22.9811 14.2122ZM7.04783 15.2379C6.77458 15.2379 6.55231 15.0178 6.55231 14.7473V8.03736C6.55231 7.76684 6.77461 7.54679 7.04783 7.54679H17.947C18.0956 7.54679 18.2161 7.59993 18.3154 7.70929L19.5316 9.04773L16.4917 9.28343C16.1872 9.30701 15.928 9.44631 15.7421 9.68621L11.4401 15.2379H7.04783ZM22.3441 14.7005L15.71 23.2616C15.5437 23.4763 15.232 23.517 15.0152 23.3523L9.63775 19.2681C9.42096 19.1034 9.37992 18.7948 9.5462 18.5802L16.1803 10.019C16.2708 9.90233 16.3867 9.84003 16.5348 9.82855L20.1882 9.54528C20.5641 9.51616 20.9564 9.53762 21.2666 9.77315C21.5308 9.97389 21.6762 10.2555 21.7682 10.7453L22.4382 14.3121C22.4653 14.4568 22.4346 14.5837 22.3441 14.7005ZM20.5306 10.7229C20.096 10.3929 19.4711 10.4743 19.1376 10.9046C18.8042 11.3349 18.8865 11.9536 19.3211 12.2837C19.7504 12.6098 20.3853 12.5263 20.7141 12.102C21.0475 11.6717 20.9652 11.0531 20.5306 10.7229ZM20.2759 11.7692C20.1297 11.9579 19.8477 11.9945 19.6573 11.8499C19.4667 11.705 19.4297 11.4261 19.5758 11.2375C19.6626 11.1255 19.7938 11.0667 19.9264 11.0667C20.2825 11.0667 20.4951 11.4864 20.2759 11.7692ZM20.0954 14.1553L19.1977 15.3142C19.1054 15.4339 18.9324 15.4568 18.8115 15.3654L16.4273 13.5552C16.3064 13.4638 16.2832 13.2926 16.3755 13.1728C16.4678 13.0531 16.6407 13.0301 16.7617 13.1216L18.9277 14.7662L19.6575 13.8242C19.7498 13.7045 19.9227 13.6815 20.0437 13.773C20.1646 13.8644 20.1878 14.0356 20.0954 14.1553ZM14.835 19.2968C14.835 19.2968 13.6217 18.3756 13.6213 18.3753C13.1911 18.0487 12.5317 18.1347 12.201 18.5616L11.7521 19.141C11.6597 19.2608 11.6829 19.432 11.8039 19.5234L14.1881 21.3336C14.309 21.4251 14.4819 21.4021 14.5743 21.2824C14.5743 21.2824 15.0227 20.7036 15.0232 20.703C15.351 20.2797 15.2602 19.6196 14.835 19.2968ZM14.5852 20.3719L14.3044 20.7344L12.3574 19.2561C12.3574 19.2561 12.639 18.8927 12.639 18.8927C12.7903 18.6974 13.0872 18.6572 13.287 18.8089C13.287 18.8089 14.5005 19.7303 14.5006 19.7303C14.6979 19.8801 14.7385 20.174 14.5852 20.3719ZM16.9647 18.1967L16.067 19.3555C15.9746 19.4752 15.8017 19.4982 15.6808 19.4068L13.2965 17.5965C13.1756 17.5051 13.1524 17.3339 13.2448 17.2142L14.1425 16.0553C14.2349 15.9356 14.4078 15.9127 14.5287 16.0041C14.6496 16.0955 14.6728 16.2667 14.5805 16.3864L13.8501 17.3293L14.6049 17.9024L15.0727 17.2985C15.1651 17.1788 15.338 17.1559 15.4589 17.2473C15.5799 17.3387 15.6031 17.5099 15.5107 17.6296L15.0422 18.2344L15.7971 18.8076L16.5268 17.8656C16.6191 17.7459 16.792 17.7229 16.913 17.8144C17.0339 17.9057 17.057 18.0769 16.9647 18.1967ZM18.5426 15.6205L15.5718 14.5674L15.5715 14.5681C15.491 14.5398 15.3983 14.5488 15.3226 14.6005C15.1975 14.686 15.1661 14.8558 15.2525 14.9797L17.0501 17.5471C17.1365 17.671 17.308 17.7021 17.4331 17.6165C17.5582 17.531 17.5896 17.3612 17.5032 17.2374L17.073 16.6229L17.646 15.8832L18.357 16.1352C18.5006 16.1859 18.6585 16.1119 18.7098 15.9697C18.761 15.8276 18.6862 15.6712 18.5426 15.6205ZM16.7433 16.152L16.1949 15.3688L17.1012 15.6901L16.7433 16.152Z"></path>
</svg>
