<svg xmlns="http://www.w3.org/2000/svg" fill="none" viewBox="0 0 29 28" height="28" width="29">
<path stroke="#551305" d="M28.5 14C28.5 21.4395 22.2487 27.5 14.5 27.5C6.75133 27.5 0.5 21.4395 0.5 14C0.5 6.56055 6.75133 0.5 14.5 0.5C22.2487 0.5 28.5 6.56055 28.5 14Z"></path>
<path fill="#551305" d="M19.7159 7.82824C19.9167 7.82446 20.0409 7.76968 20.192 7.62233L20.7655 7.0575C21.0791 6.76092 21.0829 6.22064 20.7483 5.94106L19.8822 5.18544C19.5783 4.92097 19.1099 4.94175 18.8154 5.23266L18.1922 5.84661C18.043 5.99396 17.9914 6.11108 17.9876 6.31699V6.80625L16.6244 8.14938C15.9056 8.06248 15.1389 8.01714 14.3474 8.01714C11.5618 8.01714 8.60033 8.61409 8.60033 9.7173C8.60033 10.114 8.97123 10.4163 9.45111 10.6411C8.51429 11.7122 8 12.9854 8 14.2511C8 17.0695 10.885 21.0574 11.0934 21.3445C11.4394 21.9528 13.6477 22 14.3225 22C14.9974 22 17.1999 21.9528 17.5498 21.3464C17.7696 21.0592 20.6451 17.2509 20.6451 14.2511C20.6451 12.9589 20.148 11.6744 19.2552 10.6316C19.779 10.3823 20.0964 10.0762 20.0964 9.71541C20.0964 9.10147 19.215 8.71043 18.3681 8.47619L19.0276 7.82635H19.7178L19.7159 7.82824ZM8.9827 9.7173C8.9827 9.1657 11.0246 8.39496 14.3474 8.39496C15.0146 8.39496 15.6608 8.42896 16.2784 8.4913L15.9228 8.84267C15.3932 8.7841 14.8579 8.77844 14.3474 8.77277C13.8771 8.77277 9.74936 8.79922 9.74936 9.7173C9.74936 9.97044 10.0304 10.1216 10.3019 10.2198C10.2866 10.3407 10.2828 10.4503 10.2885 10.5523C9.33257 10.267 8.9827 9.94021 8.9827 9.7173ZM13.3896 10.4729C12.9288 10.4729 12.5674 10.5806 12.3514 10.8262C11.8256 11.4269 12.0493 12.1882 12.1411 13.0194C12.2788 13.8015 12.5369 15.2598 12.101 15.7699C11.8983 16.0324 11.3572 15.9966 11.1641 15.7585C10.7722 15.324 10.9022 14.2284 11.0074 13.3481C11.1393 12.5962 11.1163 11.6819 10.8372 11.1435C10.7129 10.8281 10.6154 10.5787 10.7053 10.131C10.8391 9.46795 13.032 9.16947 14.2289 9.15058C14.6686 9.14492 15.1121 9.16381 15.5672 9.19214L14.2939 10.4465C13.9918 10.4616 13.6897 10.471 13.3896 10.471V10.4729ZM10.4051 9.85332C10.2369 9.79098 10.1681 9.73997 10.1432 9.71541C10.2101 9.64174 10.4395 9.55106 10.8104 9.46228C10.6307 9.57373 10.4912 9.70408 10.407 9.85332H10.4051ZM17.5574 20.6833C16.6015 20.8023 15.4926 20.8647 14.3474 20.8647C13.2022 20.8647 12.0551 20.8004 11.0972 20.6814C10.9213 20.4226 10.6881 20.0656 10.4281 19.6406C11.5178 19.82 12.8963 19.9183 14.3455 19.9183C15.7947 19.9183 17.1559 19.82 18.2419 19.6424C17.9761 20.0694 17.7352 20.4245 17.5555 20.6833H17.5574ZM18.5038 19.2136C17.3949 19.4252 15.919 19.5404 14.3474 19.5404C12.7758 19.5404 11.2846 19.4233 10.1738 19.2117C9.98069 18.8793 9.78186 18.5185 9.58876 18.1406C10.7435 18.4146 12.5235 18.594 14.3474 18.594C16.1713 18.594 17.9398 18.4146 19.0926 18.1406C18.8995 18.5203 18.6988 18.8793 18.5038 19.2099V19.2136ZM19.3125 17.6967C18.2189 18.0065 16.3147 18.2181 14.3455 18.2181C12.3763 18.2181 10.4606 18.0046 9.36698 17.6948C9.19683 17.3378 9.03814 16.9694 8.89858 16.6011C9.90804 17.0072 11.9748 17.2736 14.3474 17.2736C16.72 17.2736 18.76 17.0166 19.7694 16.6162C19.6337 16.9826 19.4808 17.3453 19.3144 17.6967H19.3125ZM17.2152 21.1575C17.1215 21.3445 16.135 21.6203 14.3206 21.6203C12.5063 21.6203 11.5217 21.3445 11.4261 21.1575C11.4108 21.131 11.4089 21.131 11.384 21.0951C12.2826 21.1915 13.3112 21.2425 14.3455 21.2425C15.3798 21.2425 16.3682 21.1934 17.2553 21.0989C17.2324 21.131 17.2286 21.131 17.2133 21.1575H17.2152ZM20.2608 14.2492C20.2608 14.8423 20.1365 15.4771 19.9396 16.1099C19.3374 16.5047 17.2573 16.8939 14.3474 16.8939C11.4375 16.8939 9.29625 16.4839 8.71886 16.0853C8.51238 15.4468 8.38237 14.8178 8.38237 14.2473C8.38237 13.0534 8.90814 11.7972 9.82392 10.7922C10.0036 10.8583 10.1872 10.9131 10.365 10.9622C10.6843 11.6574 10.7913 12.4187 10.625 13.299C10.5065 14.304 10.3707 15.4449 10.8774 16.006C11.2196 16.4159 12.0512 16.4499 12.3935 16.0098C12.9441 15.3637 12.6879 13.911 12.5177 12.9514C12.4183 12.3034 12.3055 11.8406 12.4833 11.3268C13.0798 11.3835 13.705 11.4137 14.3455 11.4137C16.0241 11.4137 17.7639 11.1964 18.8843 10.7846C19.7656 11.7745 20.2608 13.0099 20.2608 14.2492ZM19.7121 9.71352C19.7121 10.2651 17.6702 11.0359 14.3474 11.0359C13.8102 11.0359 13.2844 11.0132 12.7797 10.9735C12.9307 10.8904 13.1334 10.847 13.3896 10.847C15.0873 10.847 18.9454 10.4181 18.9454 9.71352C18.9454 9.51895 18.7925 9.29415 17.7524 9.0788L18.0526 8.78222C19.2743 9.08635 19.7121 9.47172 19.7121 9.71352ZM17.4255 9.40183C18.1233 9.5284 18.4063 9.64741 18.5114 9.70975C18.2782 9.84576 17.5612 10.0347 16.6244 10.1915L17.4255 9.40183ZM18.8097 7.50143L15.9859 10.2859C15.6303 10.3331 15.2555 10.3747 14.8732 10.4068L18.3126 7.01405C18.3489 6.97816 18.3681 6.93093 18.3681 6.87993V6.31699C18.37 6.21498 18.3814 6.18853 18.4617 6.11108L19.085 5.49713C19.238 5.34601 19.475 5.33278 19.628 5.46502L20.494 6.22064C20.6623 6.36232 20.6527 6.63624 20.494 6.78736L19.9205 7.35219C19.8383 7.43153 19.8096 7.44665 19.7121 7.44854H18.9454C18.8938 7.44854 18.846 7.46932 18.8097 7.50332V7.50143Z"></path>
</svg>
