<svg xmlns="http://www.w3.org/2000/svg" fill="none" viewBox="0 0 29 29" height="29" width="29">
<path fill="#551305" d="M14.5 29C22.5081 29 29 22.5081 29 14.5C29 6.49187 22.5081 0 14.5 0C6.49187 0 0 6.49187 0 14.5C0 22.5081 6.49187 29 14.5 29Z"></path>
<path fill="white" d="M7.77162 15.6266C7.44001 15.6266 7.14519 15.8495 7.0557 16.169L6.68641 17.4851C6.6829 17.4969 6.68518 17.5075 6.69223 17.5169C6.69975 17.5267 6.7095 17.5318 6.72166 17.5318H12.5866C12.6031 17.5318 12.6172 17.5208 12.6219 17.5048L12.9449 16.3543C13.0247 16.0705 13.1785 15.8217 13.3822 15.6266L7.77162 15.6266ZM16.3897 17.5318H22.2824C22.2941 17.5318 22.3039 17.5267 22.3114 17.5169C22.3189 17.5075 22.3208 17.4965 22.3177 17.4851L21.9483 16.169C21.8585 15.8495 21.564 15.6266 21.2324 15.6266H15.6227C15.8259 15.8217 15.9802 16.0705 16.0599 16.3543L16.3897 17.5318ZM22.2824 17.984H16.2181C16.1169 17.984 16.0277 17.9165 16.0006 17.8188L15.6246 16.4764C15.4868 15.9861 15.0417 15.6407 14.535 15.6266H14.4699C13.9631 15.6407 13.518 15.9861 13.3802 16.4764L13.0572 17.6268C12.9984 17.8372 12.8048 17.984 12.5866 17.984H6.72175C6.56747 17.984 6.42534 17.9134 6.33193 17.7901C6.23894 17.6673 6.20905 17.5114 6.25105 17.3631L6.62001 16.047C6.7645 15.5332 7.23822 15.1744 7.77163 15.1744H14.4639C14.4895 15.1736 14.5153 15.1736 14.5409 15.1744H21.2324C21.7658 15.1744 22.2395 15.5332 22.3836 16.047L22.753 17.3631C22.7946 17.511 22.7651 17.6669 22.6721 17.7901C22.5787 17.9134 22.4366 17.984 22.2824 17.984Z" clip-rule="evenodd" fill-rule="evenodd"></path>
<path fill="white" d="M14.5021 24.374C14.4919 24.374 14.4816 24.3732 14.4715 24.372L8.43584 23.5505C8.09875 23.5042 7.84473 23.2133 7.84473 22.8738L7.84476 17.7578C7.84476 17.6326 7.946 17.5317 8.07081 17.5317C8.19562 17.5317 8.2969 17.6326 8.2969 17.7578L8.29693 22.8738C8.29693 22.9884 8.38286 23.0869 8.49669 23.1023L14.5021 23.9199L20.5075 23.1018C20.6217 23.0865 20.7072 22.9884 20.7072 22.873L20.7073 17.7578C20.7073 17.6326 20.8085 17.5317 20.9333 17.5317C21.0582 17.5317 21.1594 17.6326 21.1594 17.7578L21.1595 22.873C21.1595 23.2137 20.9055 23.5046 20.5683 23.5501L14.5324 24.372C14.5225 24.3732 14.5123 24.374 14.5021 24.374Z" clip-rule="evenodd" fill-rule="evenodd"></path>
<path fill="white" d="M14.5025 24.374C14.3777 24.374 14.2764 24.2727 14.2764 24.1479V15.4004C14.2764 15.2752 14.3776 15.1743 14.5025 15.1743C14.6273 15.1743 14.7285 15.2752 14.7285 15.4004V24.1479C14.7285 24.2727 14.6273 24.374 14.5025 24.374Z" clip-rule="evenodd" fill-rule="evenodd"></path>
<path fill="white" d="M13.9797 13.5886H12.6236C12.4987 13.5886 12.3975 13.4874 12.3975 13.3626L12.3975 8.84084C12.3975 8.13353 12.5969 7.44391 12.9749 6.84611L14.3106 4.73362C14.3519 4.66807 14.424 4.62842 14.5017 4.62842C14.5791 4.62842 14.6513 4.66807 14.6929 4.73362L16.0286 6.84533C16.4062 7.44389 16.606 8.13393 16.606 8.84044L16.606 13.3618C16.606 13.487 16.5047 13.5878 16.3799 13.5878H15.0234C14.8986 13.5878 14.7973 13.487 14.7973 13.3618C14.7973 13.2369 14.8985 13.1357 15.0234 13.1357H16.1538V8.84045C16.1538 8.21948 15.9783 7.61308 15.6463 7.08712L14.5017 5.27723L13.3568 7.08751C13.0251 7.61305 12.8496 8.2191 12.8496 8.84084L12.8497 13.1365H13.9797C14.1046 13.1365 14.2057 13.2373 14.2057 13.3626C14.2058 13.4874 14.1045 13.5886 13.9797 13.5886Z" clip-rule="evenodd" fill-rule="evenodd"></path>
<path fill="white" d="M15.9202 7.33132H13.0835C12.9587 7.33132 12.8574 7.23006 12.8574 7.10524C12.8575 6.98003 12.9587 6.87915 13.0835 6.87915H15.9202C16.045 6.87915 16.1463 6.98003 16.1463 7.10524C16.1463 7.23006 16.045 7.33132 15.9202 7.33132Z" clip-rule="evenodd" fill-rule="evenodd"></path>
<path fill="white" d="M14.5016 8.56057C14.1378 8.56057 13.8418 8.85652 13.8418 9.22C13.8418 9.58385 14.1378 9.87981 14.5016 9.87981C14.8651 9.8798 15.161 9.58385 15.161 9.22C15.1611 8.85652 14.8651 8.56057 14.5016 8.56057ZM14.5016 10.332C13.8886 10.332 13.3896 9.83311 13.3896 9.22C13.3897 8.60688 13.8885 8.1084 14.5016 8.1084C15.1148 8.1084 15.6132 8.6069 15.6132 9.22C15.6133 9.83311 15.1147 10.332 14.5016 10.332Z" clip-rule="evenodd" fill-rule="evenodd"></path>
<path fill="white" d="M14.502 11.5613C14.3388 11.5613 14.2061 11.694 14.2061 11.8569L14.2061 14.0137C14.2061 14.177 14.3388 14.3097 14.502 14.3097C14.665 14.3097 14.7976 14.177 14.7976 14.0137L14.7976 11.8568C14.7976 11.694 14.6649 11.5613 14.502 11.5613ZM14.502 14.7618C14.0895 14.7618 13.7539 14.4262 13.7539 14.0137L13.7539 11.8568C13.7539 11.4447 14.0895 11.1091 14.502 11.1091C14.9142 11.1091 15.2498 11.4447 15.2498 11.8569L15.2498 14.0137C15.2498 14.4262 14.9142 14.7618 14.502 14.7618Z" clip-rule="evenodd" fill-rule="evenodd"></path>
<path fill="white" d="M11.5289 14.6838C11.4998 14.6838 11.4704 14.6783 11.4425 14.6665C11.3581 14.6316 11.3027 14.5492 11.3027 14.4577L11.3028 14.0311C11.3028 12.9721 11.7153 11.9763 12.4642 11.2274C12.5525 11.1391 12.6958 11.1391 12.7841 11.2274C12.8725 11.3157 12.8724 11.4589 12.7841 11.5473C12.149 12.1823 11.7871 13.0172 11.7569 13.9098L12.4642 13.2025C12.5525 13.1142 12.6958 13.1142 12.7841 13.2025C12.8725 13.2908 12.8724 13.4341 12.7841 13.5224L11.6891 14.6175C11.6454 14.6606 11.5877 14.6838 11.5289 14.6838Z" clip-rule="evenodd" fill-rule="evenodd"></path>
<path fill="white" d="M17.4755 14.6833C17.4165 14.6833 17.3588 14.6602 17.3157 14.617L16.2206 13.5219C16.1323 13.4336 16.1323 13.2903 16.2206 13.202C16.3086 13.1137 16.4517 13.1137 16.5401 13.202L17.2474 13.9093C17.2172 13.0163 16.8553 12.1811 16.2206 11.5468C16.1323 11.4585 16.1323 11.3152 16.2202 11.2269C16.3086 11.1386 16.4517 11.1386 16.5401 11.2269C17.289 11.9754 17.7015 12.9712 17.7015 14.0306L17.7016 14.4572C17.7016 14.5487 17.6466 14.6311 17.5621 14.6661C17.5339 14.6774 17.5049 14.6833 17.4755 14.6833Z" clip-rule="evenodd" fill-rule="evenodd"></path>
<path fill="white" d="M10.9241 9.47204H10.3765C10.2516 9.47204 10.1504 9.37118 10.1504 9.24635C10.1504 9.12113 10.2516 9.02026 10.3765 9.02026H10.9241C11.0493 9.02026 11.1501 9.12113 11.1501 9.24635C11.1502 9.37116 11.0492 9.47204 10.9241 9.47204Z" clip-rule="evenodd" fill-rule="evenodd"></path>
<path fill="white" d="M11.3072 8.54884C11.2491 8.54884 11.1913 8.52688 11.1469 8.48252L10.7596 8.09512C10.6713 8.0068 10.6713 7.86354 10.7596 7.77523C10.8479 7.6869 10.9907 7.6869 11.079 7.77523L11.4669 8.163C11.5552 8.25133 11.5552 8.39421 11.4669 8.48252C11.4225 8.52688 11.3648 8.54885 11.3072 8.54884Z" clip-rule="evenodd" fill-rule="evenodd"></path>
<path fill="white" d="M10.9194 10.7828C10.8613 10.7828 10.8036 10.7605 10.7592 10.7165C10.6714 10.6282 10.6713 10.4849 10.7596 10.3966L11.1475 10.0096C11.2358 9.92128 11.3786 9.92128 11.4669 10.0096C11.5552 10.0979 11.5552 10.2412 11.4669 10.3295L11.0791 10.7165C11.0352 10.7605 10.9771 10.7829 10.9194 10.7828Z" clip-rule="evenodd" fill-rule="evenodd"></path>
<path fill="white" d="M18.6276 9.47204H18.0797C17.9548 9.47204 17.8535 9.37118 17.8535 9.24635C17.8536 9.12113 17.9548 9.02026 18.0796 9.02026H18.6276C18.7524 9.02026 18.8536 9.12113 18.8536 9.24635C18.8537 9.37116 18.7524 9.47204 18.6276 9.47204Z" clip-rule="evenodd" fill-rule="evenodd"></path>
<path fill="white" d="M17.6977 8.54884C17.64 8.54884 17.5819 8.52688 17.5379 8.48252C17.4496 8.39421 17.4496 8.25133 17.5379 8.16302L17.9254 7.77522C18.0137 7.6869 18.1569 7.6869 18.2452 7.77523C18.3336 7.86353 18.3335 8.0068 18.2452 8.09513L17.8575 8.48252C17.8135 8.52688 17.7554 8.54886 17.6977 8.54884Z" clip-rule="evenodd" fill-rule="evenodd"></path>
<path fill="white" d="M18.0845 10.7828C18.0265 10.7828 17.9687 10.7605 17.9248 10.7165L17.537 10.3295C17.4487 10.2412 17.4487 10.0979 17.5366 10.0096C17.625 9.92128 17.7682 9.92128 17.8565 10.0096L18.2443 10.3966C18.3326 10.4849 18.3326 10.6282 18.2443 10.7165C18.2003 10.7605 18.1422 10.7829 18.0845 10.7828Z" clip-rule="evenodd" fill-rule="evenodd"></path>
</svg>
