<svg xmlns="http://www.w3.org/2000/svg" fill="none" viewBox="0 0 29 28" height="28" width="29">
<path stroke="#551305" fill="#551305" d="M28.5 14C28.5 21.4395 22.2487 27.5 14.5 27.5C6.75133 27.5 0.5 21.4395 0.5 14C0.5 6.56055 6.75133 0.5 14.5 0.5C22.2487 0.5 28.5 6.56055 28.5 14Z"></path>
<path fill="white" d="M11.2996 22.3351H15.9155C16.4646 22.7492 17.1375 22.9786 17.8265 22.9786C19.5764 22.9786 21 21.5535 21 19.802C21 18.0506 19.5764 16.6257 17.8265 16.6257C17.6671 16.6257 17.5091 16.6402 17.3528 16.664V12.6605C17.3528 11.6839 16.6332 10.8722 15.6966 10.7276V7.93798C16.0475 7.82667 16.3043 7.50166 16.3043 7.11433C16.3043 6.69378 16.0034 6.34252 15.6058 6.26341V5.29964C15.6058 5.13417 15.4718 5 15.3062 5H13.0466C12.881 5 12.7469 5.13417 12.7469 5.29964V6.26341C12.3494 6.34252 12.0485 6.69378 12.0485 7.11433C12.0485 7.50166 12.3053 7.82667 12.6562 7.93798V10.7273C12.2471 10.7896 11.8703 10.9794 11.5724 11.2771C11.2034 11.6464 11 12.1377 11 12.6605V22.0355C11 22.2009 11.134 22.3351 11.2996 22.3351ZM17.1348 17.3205C17.3586 17.2571 17.5916 17.2249 17.8265 17.2249C19.246 17.2249 20.4007 18.3811 20.4007 19.802C20.4007 21.2232 19.246 22.3793 17.8265 22.3793C17.2372 22.3793 16.6607 22.1746 16.2034 21.803C15.5971 21.3098 15.2494 20.5804 15.2494 19.802C15.2494 19.658 15.2615 19.516 15.2849 19.3771C15.4483 18.4054 16.1628 17.5905 17.1348 17.3205ZM13.3462 5.59929H15.0066V6.24627H13.3462V5.59929ZM12.6477 7.11433C12.6477 6.96611 12.7683 6.84556 12.9164 6.84556H13.0466H15.3062H15.4364C15.5845 6.84556 15.705 6.96611 15.705 7.11433C15.705 7.26239 15.5845 7.38295 15.4364 7.38295H12.9164C12.7683 7.38295 12.6477 7.26239 12.6477 7.11433ZM11.5993 12.6605C11.5993 12.2977 11.7403 11.9569 11.9961 11.701C12.2521 11.445 12.593 11.3039 12.9559 11.3039C13.1215 11.3039 13.2555 11.1697 13.2555 11.0043V7.98268H15.0973V11.0043C15.0973 11.1697 15.2313 11.3039 15.3969 11.3039C16.1448 11.3039 16.7535 11.9124 16.7535 12.6605V16.8131C16.7477 16.8151 16.7423 16.8178 16.7366 16.8199C16.7045 16.8316 16.6737 16.8453 16.6422 16.858C16.5949 16.877 16.5474 16.8958 16.5013 16.917C16.4683 16.9321 16.4365 16.9491 16.4042 16.9653C16.3615 16.9868 16.3187 17.008 16.2771 17.0313C16.2443 17.0497 16.2127 17.0696 16.1806 17.0891C16.1412 17.113 16.1019 17.137 16.0638 17.1625C16.0322 17.1837 16.0016 17.2061 15.9708 17.2283C15.9343 17.2548 15.8979 17.2814 15.8625 17.3093C15.8325 17.3331 15.8033 17.3578 15.7742 17.3826C15.7402 17.4115 15.7066 17.4407 15.6739 17.471C15.6458 17.497 15.6184 17.5238 15.5912 17.5509C15.5598 17.5821 15.529 17.6138 15.4989 17.6463C15.4728 17.6746 15.4473 17.7033 15.4223 17.7324C15.3935 17.7659 15.3655 17.7999 15.3381 17.8346C15.3142 17.8648 15.2908 17.8951 15.2681 17.9262C15.242 17.9618 15.2169 17.998 15.1923 18.0347C15.1708 18.0666 15.1497 18.0985 15.1294 18.1312C15.1059 18.169 15.0838 18.2075 15.0619 18.2463C15.0432 18.2794 15.0245 18.3124 15.007 18.3462C14.9862 18.3863 14.967 18.4273 14.9479 18.4683C14.932 18.5024 14.9159 18.5363 14.9012 18.571C14.8833 18.6134 14.8673 18.6566 14.8512 18.6999C14.8382 18.7346 14.8248 18.7689 14.813 18.8041C14.798 18.8491 14.7853 18.895 14.7723 18.9408C14.7625 18.9754 14.7517 19.0097 14.7431 19.0447C14.731 19.0935 14.7217 19.1431 14.7119 19.1926C14.7054 19.2257 14.6976 19.2584 14.6922 19.2918C14.683 19.3476 14.677 19.4041 14.6709 19.4606C14.6678 19.4887 14.6632 19.5163 14.6609 19.5446C14.6539 19.6297 14.6501 19.7155 14.6501 19.802C14.6501 19.9098 14.6573 20.0164 14.668 20.1223C14.6711 20.1531 14.6754 20.1835 14.6794 20.2141C14.6897 20.2939 14.7031 20.3729 14.7194 20.4512C14.7252 20.4793 14.7303 20.5074 14.7369 20.5353C14.7612 20.6378 14.7893 20.7391 14.8235 20.8382C14.8271 20.8485 14.8316 20.8583 14.8352 20.8685C14.867 20.9575 14.9031 21.0446 14.9426 21.1303C14.9553 21.1577 14.9687 21.1846 14.9821 21.2117C15.0184 21.2848 15.0576 21.3563 15.0995 21.4265C15.1127 21.4485 15.1249 21.471 15.1386 21.4927C15.1911 21.5759 15.2465 21.6575 15.3068 21.7358H11.5993V12.6605Z"></path>
<path fill="white" d="M17.8252 22.0011C18.5213 22.0011 19.0878 21.4347 19.0878 20.7385C19.0878 20.175 18.2664 18.1811 18.1017 17.7871C18.0552 17.6756 17.946 17.603 17.8252 17.603C17.7043 17.603 17.5952 17.6756 17.5486 17.7871C17.3839 18.1811 16.5625 20.175 16.5625 20.7385C16.5625 21.4347 17.129 22.0011 17.8252 22.0011ZM17.8252 18.7018C18.1564 19.5462 18.4885 20.4855 18.4885 20.7385C18.4885 21.1042 18.1909 21.4018 17.8252 21.4018C17.4594 21.4018 17.1618 21.1042 17.1618 20.7385C17.1618 20.4856 17.4939 19.5462 17.8252 18.7018Z"></path>
</svg>
