<svg xmlns="http://www.w3.org/2000/svg" fill="none" viewBox="0 0 29 28" height="28" width="29">
<path stroke="#551305" fill="#551305" d="M28.5 14C28.5 21.4395 22.2487 27.5 14.5 27.5C6.75133 27.5 0.5 21.4395 0.5 14C0.5 6.56055 6.75133 0.5 14.5 0.5C22.2487 0.5 28.5 6.56055 28.5 14Z"></path>
<path fill="white" d="M21.4274 20.1328H20.1502C20.3487 19.9894 20.5365 19.8263 20.7125 19.644C20.7968 19.5567 20.7989 19.4128 20.7172 19.3226C20.6356 19.2325 20.5011 19.2301 20.4167 19.3175C20.0739 19.6727 19.6815 19.9467 19.2499 20.1328H16.6465C15.7706 19.7551 15.074 19.0251 14.6675 18.0949C14.6621 18.0825 14.6627 18.0706 14.6693 18.0594C14.6784 18.044 14.6914 18.044 14.6957 18.044H21.2007C21.2248 18.044 21.2396 18.0706 21.229 18.0949C21.1649 18.2415 21.0923 18.3854 21.0132 18.5226C20.9515 18.6295 20.9825 18.7695 21.0824 18.8354C21.1823 18.9014 21.3132 18.8682 21.3749 18.7614C21.4626 18.6093 21.5431 18.4499 21.6141 18.2875C21.7562 17.9622 21.5358 17.5895 21.2007 17.5895H20.5002L18.9507 16.2717C19.3614 14.8856 19.4029 13.6367 19.3757 12.8921C19.8328 12.8451 20.1914 12.4322 20.1914 11.9313C20.1914 11.399 19.7865 10.9659 19.2888 10.9659H18.5839L19.6724 8.59389C19.9095 8.07721 19.7319 7.44376 19.2682 7.15175C18.8045 6.85971 18.2005 7.00109 17.8931 7.47352L15.6209 10.9659H9.24487C8.7472 10.9659 8.3423 11.399 8.3423 11.9313C8.3423 12.4322 8.70087 12.8451 9.15787 12.8921C9.11237 14.1365 9.25932 16.7422 10.9498 19.0676C10.6883 19.2032 10.5074 19.49 10.5074 19.8212C10.5074 19.9301 10.5274 20.0355 10.564 20.1329H8.57265C8.2569 20.1329 8 20.4076 8 20.7453C8 21.4371 8.52626 22 9.17312 22H20.8269C21.4738 22 22 21.4371 22 20.7453C22 20.4076 21.7431 20.1328 21.4274 20.1328ZM16.0792 17.5894L17.4257 16.4443C17.7334 16.1827 18.1632 16.1827 18.4708 16.4443L19.8173 17.5894H16.0792ZM18.242 7.73314C18.4232 7.45461 18.7792 7.3713 19.0526 7.54344C19.3259 7.71559 19.4306 8.089 19.2908 8.39356L18.1105 10.9659H16.1387L18.242 7.73314ZM9.58309 12.8966H10.2458C10.3632 12.8966 10.4583 12.7948 10.4583 12.6693C10.4583 12.5438 10.3632 12.442 10.2458 12.442H9.24487C8.98154 12.442 8.76734 12.2129 8.76734 11.9313C8.76734 11.6497 8.98157 11.4205 9.24487 11.4205H19.2888C19.5522 11.4205 19.7664 11.6497 19.7664 11.9313C19.7664 12.2129 19.5522 12.442 19.2888 12.442H11.2393C11.1219 12.442 11.0268 12.5438 11.0268 12.6693C11.0268 12.7948 11.1219 12.8966 11.2393 12.8966H18.9506C18.9765 13.5775 18.9428 14.7117 18.5894 15.9813C18.1428 15.6987 17.5778 15.7343 17.1612 16.0885L15.3963 17.5895H14.6958C14.36 17.5895 14.1406 17.9628 14.2824 18.2875C14.3901 18.5339 14.516 18.7667 14.6578 18.9843H11.432C9.6798 16.7172 9.53664 14.1109 9.58309 12.8966ZM10.9325 19.8212C10.9325 19.6103 11.0928 19.4388 11.2899 19.4388H14.996C15.2197 19.7027 15.4708 19.9357 15.7446 20.1328H11.0833C10.9892 20.0616 10.9325 19.9462 10.9325 19.8212ZM20.8269 21.5454H9.17312C8.76063 21.5454 8.42504 21.1865 8.42504 20.7453C8.42504 20.6583 8.49126 20.5874 8.57265 20.5874H21.4274C21.5088 20.5874 21.575 20.6583 21.575 20.7453C21.575 21.1865 21.2394 21.5454 20.8269 21.5454Z"></path>
<path fill="white" d="M11.0869 9.98856C10.6426 10.4127 10.282 10.5721 10.2784 10.5736C10.1703 10.6201 10.1185 10.7491 10.1628 10.8622C10.1963 10.948 10.2756 11 10.3593 11C10.5308 11 11.4031 10.4794 12.0811 9.47589C13.0516 10.0626 13.9825 9.98909 14.8341 9.25384C15.088 9.0346 15.0428 8.61661 14.7511 8.46055C14.4296 8.28854 13.9333 8.09635 13.3946 8.15775C13.1214 8.18885 12.8726 8.28142 12.6585 8.39519C12.7377 8.2046 12.8123 8.00139 12.8802 7.78428C12.9166 7.668 12.8557 7.54294 12.7443 7.50496C12.6329 7.46695 12.5131 7.53045 12.4767 7.64676C12.2884 8.24849 12.046 8.7336 11.7979 9.11877C11.8078 8.83615 11.7782 8.51699 11.6623 8.20548C11.4661 7.67816 11.0739 7.30705 10.7795 7.08857C10.5121 6.89015 10.1361 7.04179 10.0669 7.37746C9.99085 7.74609 9.94142 8.29621 10.1376 8.82348C10.3524 9.40066 10.8023 9.78923 11.0869 9.98856ZM13.4407 8.59813C13.8749 8.54874 14.2877 8.71039 14.5575 8.85479C14.5789 8.86622 14.5821 8.89649 14.5635 8.91247C14.3299 9.1142 13.9602 9.36507 13.526 9.41451C13.0613 9.46741 12.6188 9.27502 12.3652 9.13325C12.5827 8.93787 12.9736 8.65135 13.4407 8.59813ZM10.4818 7.47067C10.4867 7.44716 10.5132 7.43449 10.5336 7.44964C10.7808 7.63303 11.1086 7.94082 11.2667 8.36583C11.4359 8.8207 11.3723 9.31663 11.3068 9.60897C11.0697 9.44024 10.7033 9.12022 10.5333 8.6631C10.3752 8.23815 10.418 7.78008 10.4818 7.47067Z"></path>
</svg>
