<!--?xml version="1.0" encoding="UTF-8"?-->
<svg viewBox="0 0 34.91 34.91" xmlns="http://www.w3.org/2000/svg" id="Layer_2">
  <defs>
    <style>
      .cls-1 {
        fill: #551305;
      }
    </style>
  </defs>
  <g data-sanitized-data-name="Layer_1" data-name="Layer_1" id="Layer_1-2">
    <g>
      <path d="M17.45,34.91C7.83,34.91,0,27.08,0,17.45S7.83,0,17.45,0s17.45,7.83,17.45,17.45-7.83,17.45-17.45,17.45ZM17.45,1C8.38,1,1,8.38,1,17.45s7.38,16.45,16.45,16.45,16.45-7.38,16.45-16.45S26.53,1,17.45,1Z" class="cls-1"></path>
      <g>
        <g>
          <path d="M10,19.13v.14h1.13v.8h-1.19c-.07.44-.21.78-.41,1.04-.2.26-.48.44-.85.56-.37.11-.84.17-1.42.17v.62c0,.36.08.64.23.85.15.21.41.31.78.31.66,0,1-.38,1-1.12h1.03c0,.66-.18,1.15-.53,1.49-.35.34-.85.5-1.51.5s-1.16-.18-1.51-.55c-.35-.36-.52-.88-.52-1.53v-1.34c.72,0,1.25-.02,1.59-.06.34-.04.59-.13.76-.27.17-.14.27-.36.33-.66h-3.09v-.8h3.14v-.87h-3.14v-.81h5.32v.81h-1.13v.73Z" class="cls-1"></path>
          <path d="M14.25,23.31c.39,0,.7-.16.94-.49.24-.33.42-.87.55-1.64-.18.2-.41.36-.69.47-.28.11-.58.17-.88.17-.54,0-.98-.15-1.31-.44s-.5-.71-.5-1.24c0-.14.02-.31.05-.51.13-.7.43-1.26.92-1.67.49-.42,1.09-.62,1.82-.62s1.19.17,1.5.52c.31.35.46.87.46,1.56,0,.41-.05.87-.14,1.38-.15.82-.33,1.49-.56,2.01-.23.52-.54.92-.93,1.19-.39.27-.88.41-1.47.41-.65,0-1.13-.16-1.45-.49-.32-.32-.48-.74-.48-1.24,0-.09,0-.17,0-.22h1.23c.02.57.33.86.93.86ZM15.46,20.44c.23-.2.37-.47.43-.81.02-.11.03-.21.03-.3,0-.28-.08-.5-.25-.65-.16-.15-.39-.22-.68-.22-.34,0-.63.11-.86.32s-.38.49-.44.84c-.02.09-.03.18-.03.26,0,.27.08.48.25.63s.41.24.74.24.6-.1.82-.3Z" class="cls-1"></path>
          <path d="M20.18,23.31c.39,0,.7-.16.94-.49.24-.33.42-.87.55-1.64-.18.2-.41.36-.69.47-.28.11-.58.17-.88.17-.54,0-.98-.15-1.31-.44s-.5-.71-.5-1.24c0-.14.02-.31.05-.51.13-.7.43-1.26.92-1.67.49-.42,1.09-.62,1.82-.62s1.19.17,1.5.52c.31.35.46.87.46,1.56,0,.41-.05.87-.14,1.38-.15.82-.33,1.49-.56,2.01-.23.52-.54.92-.93,1.19-.39.27-.88.41-1.47.41-.65,0-1.13-.16-1.45-.49-.32-.32-.48-.74-.48-1.24,0-.09,0-.17,0-.22h1.23c.02.57.33.86.93.86ZM21.39,20.44c.23-.2.37-.47.43-.81.02-.11.03-.21.03-.3,0-.28-.08-.5-.25-.65-.16-.15-.39-.22-.68-.22-.34,0-.63.11-.86.32s-.38.49-.44.84c-.02.09-.03.18-.03.26,0,.27.08.48.25.63s.41.24.74.24.6-.1.82-.3Z" class="cls-1"></path>
          <path d="M26.1,23.31c.39,0,.7-.16.94-.49.24-.33.42-.87.55-1.64-.18.2-.41.36-.69.47-.28.11-.58.17-.88.17-.54,0-.98-.15-1.31-.44s-.5-.71-.5-1.24c0-.14.02-.31.05-.51.13-.7.43-1.26.92-1.67.49-.42,1.09-.62,1.82-.62s1.19.17,1.5.52c.31.35.46.87.46,1.56,0,.41-.05.87-.14,1.38-.15.82-.33,1.49-.56,2.01-.23.52-.54.92-.93,1.19-.39.27-.88.41-1.47.41-.65,0-1.13-.16-1.45-.49-.32-.32-.48-.74-.48-1.24,0-.09,0-.17,0-.22h1.23c.02.57.33.86.93.86ZM27.31,20.44c.23-.2.37-.47.43-.81.02-.11.03-.21.03-.3,0-.28-.08-.5-.25-.65-.16-.15-.39-.22-.68-.22-.34,0-.63.11-.86.32s-.38.49-.44.84c-.02.09-.03.18-.03.26,0,.27.08.48.25.63s.41.24.74.24.6-.1.82-.3Z" class="cls-1"></path>
        </g>
        <g>
          <path d="M8.06,15.63c-.41,0-.76-.07-1.06-.2-.3-.13-.53-.32-.7-.58-.16-.25-.25-.56-.25-.93v-2.32l-.49-.1v-.67h2.11v.67l-.49.1v2.32c0,.19.03.35.1.47.07.12.17.22.29.28s.28.09.47.09.35-.03.48-.09.23-.15.29-.28c.07-.12.1-.28.1-.47v-2.32l-.49-.1v-.67h2.11v.67l-.49.1v2.32c0,.36-.08.66-.25.92-.17.25-.4.45-.7.58-.3.13-.65.2-1.05.2Z" class="cls-1"></path>
          <path d="M10.73,15.56v-.66l.49-.1v-3.18l-.49-.1v-.67h1.64l1.89,3.02h.02v-2.25l-.62-.1v-.67h2.12v.67l-.49.1v3.95h-1.12l-1.93-2.96h-.02v2.19l.62.1v.66h-2.12Z" class="cls-1"></path>
          <path d="M15.96,15.56v-.66l.5-.12v-3.14l-.5-.12v-.67h2.21c.43,0,.8.1,1.13.3.33.2.59.47.77.82.19.35.28.75.28,1.21v.07c0,.46-.09.86-.28,1.21-.19.35-.44.62-.77.82-.33.2-.71.29-1.13.29h-2.21ZM17.59,14.7h.52c.24,0,.44-.06.6-.18.16-.12.28-.29.37-.51.08-.22.12-.48.12-.77v-.08c0-.29-.04-.55-.12-.76-.08-.22-.21-.39-.37-.51-.16-.12-.36-.18-.6-.18h-.52v2.99Z" class="cls-1"></path>
          <path d="M20.72,15.56v-.66l.49-.1v-3.18l-.49-.1v-.67h3.77v1.36h-.86l-.03-.49h-1.26v.97h1.51v.87h-1.51v1.12h1.32l.03-.51h.85v1.39h-3.82Z" class="cls-1"></path>
          <path d="M24.96,15.56v-.66l.49-.1v-3.18l-.49-.1v-.67h2.32c.37,0,.7.06.97.18.27.12.49.29.64.51s.22.48.22.78c0,.28-.08.53-.23.77-.15.24-.36.43-.62.57-.26.14-.56.21-.89.21h-.79s0,.93,0,.93l.49.1v.66h-2.12ZM26.59,12.98h.71c.22,0,.39-.05.51-.15.12-.1.18-.25.18-.45s-.06-.36-.18-.48-.29-.18-.52-.18h-.69v1.27ZM27.95,15.56l-.63-1.84.99-.34.57,1.4.45.11v.66h-1.37Z" class="cls-1"></path>
        </g>
      </g>
    </g>
  </g>
</svg>